REM MD5 42b83e205062aef45bdf1cad97cc31ff
FILE "Simple 1500 Series Vol. 4 - The Reversi (Japan) (Culture Publishers).bin" BINARY
  TRACK 01 MODE2/2352
    INDEX 01 00:00:00
  TRACK 02 AUDIO
    INDEX 00 05:58:07
    INDEX 01 06:00:07
  TRACK 03 AUDIO
    INDEX 00 08:03:00
    INDEX 01 08:05:00
  TRACK 04 AUDIO
    INDEX 00 10:59:74
    INDEX 01 11:01:74
  TRACK 05 AUDIO
    INDEX 00 13:36:19
    INDEX 01 13:38:19
  TRACK 06 AUDIO
    INDEX 00 16:20:33
    INDEX 01 16:22:33
REM LEADOUT 18:25:26
